<svg xmlns="http://www.w3.org/2000/svg" width="544" height="408"><path fill="none" d="M244.562 344.875l-60.718-60.719h-.001l60.719 60.719zM366 223.437l60.719-60.718-30.36-30.359L366 162.719zM305.281 41.281l-30.359-30.359-30.359 30.359-30.36-30.359 30.359 30.359V102zM123.125 162.719v60.718l60.718-60.718-30.359-30.359zM305.281 284.156l-30.359-30.359-30.36 30.359v60.719l60.719-60.719h-.001zM183.844 41.281v.001l20.239 20.239z"/><path fill="#FAB231" d="M153.484 71.641l30.359-30.36.001.001v-.001L142.563 0h-38.875L62.406 41.281l30.359 30.36 30.36-30.36zM274.922 193.078l30.359-30.359L244.562 102l-60.718 60.719 30.359 30.359 30.359-30.359zM366.001 344.879l-60.718-60.718 60.718-60.718 60.718 60.718zM335.641 71.641L366 41.281l30.359 30.36 30.36-30.36L385.438 0h-38.876l-41.281 41.281zM487.438 102zM543.999 158.562L487.438 102l-60.719 60.719 30.359 30.359 30.36-30.359 30.358 30.359 26.203-26.203H544v-8.313h-.001z"/><path fill="none" d="M379.362 115.962l-4.958-4.629h-21.771l4.958 4.629zM379.363 99.734h-21.771l-4.958 4.629h21.769zM379.36 92.763l-4.956-4.631h-21.768l4.956 4.631zM183.843 284.156l60.719 60.719-60.718-60.719zM347.068 121.629l3.275-3.274-10.506-10.507 10.506-10.503-3.275-3.276-12.144 12.143a2.29 2.29 0 0 0-.675 1.637c0 .62.239 1.201.675 1.637l12.144 12.143zM244.563 41.281l-30.36-30.359 30.359 30.359V102l60.719-60.719-30.359-30.359zM123.125 162.719v60.718l60.718-60.718-30.359-30.359zM384.933 110.027l12.139-12.141a2.309 2.309 0 0 0 .679-1.64 2.304 2.304 0 0 0-.679-1.635l-12.139-12.145-3.273 3.275 10.5 10.506-10.5 10.506 3.273 3.274zM366 162.719v60.718l60.719-60.718-30.36-30.359zM274.922 193.078l30.359-30.359L244.562 102l-60.718 60.719 30.359 30.359 30.359-30.359zM274.922 253.797l-30.36 30.359v60.719l60.719-60.719z"/><path fill="none" d="M305.277 284.157l60.718-60.718 60.718 60.718-60.718 60.718zM366 344.875h-.001M183.843 284.156l60.719 60.719-60.718-60.719z"/><path fill="none" d="M274.922 253.797l-30.36 30.359v60.719l60.719-60.719z"/><path fill="none" d="M305.277 284.157l60.718-60.718 60.718 60.718-60.718 60.718zM244.563 41.281l-30.36-30.359 30.359 30.359V102l60.719-60.719-30.359-30.359zM366 162.719v60.718l60.719-60.718-30.36-30.359zM214.203 193.078l30.359-30.359 30.36 30.359 30.359-30.359L244.562 102l-60.718 60.719zM379.363 99.734h-21.771l-4.958 4.629h21.769zM379.36 92.763l-4.956-4.631h-21.768l4.956 4.631zM379.362 115.962l-4.958-4.629h-21.771l4.958 4.629zM334.25 107.849c0 .62.239 1.201.675 1.637l12.144 12.143 3.275-3.274-10.506-10.507 10.506-10.503-3.275-3.276-12.144 12.143a2.287 2.287 0 0 0-.675 1.637zM384.933 110.027l12.139-12.141a2.309 2.309 0 0 0 .679-1.64 2.304 2.304 0 0 0-.679-1.635l-12.139-12.145-3.273 3.275 10.5 10.506-10.5 10.506 3.273 3.274zM123.125 162.719v60.718l60.718-60.718-30.359-30.359z"/><path fill="#CB3837" d="M426.719 162.719L487.438 102 544 158.562 543.999 0H385.438l41.28 41.281-30.359 30.359L366 41.281 335.641 71.64l-30.359-30.359L244.562 102l60.719 60.719-30.359 30.359-30.36-30.359-30.359 30.359-30.359-30.359L244.562 102m60.719-60.719L346.562 0H142.563l41.28 41.28 20.239 20.24-20.239-20.239-30.359 30.359-30.359-30.359-30.36 30.36-30.359-30.36L1.687 102l60.718 60.719-60.718 60.719 60.719 60.719 60.719-60.719 60.718 60.719 60.719 60.719v-60.719 60.719l60.719-60.719L366 223.438l60.719 60.719L366 344.875l60.719 60.719 60.719-60.719L544 288.313v-60.718l.001-.001v-8.312l-.001-.001v-52.406l-26.203 26.203-30.358-30.359-30.359 30.359-30.359-30.359m-242.878 0l-60.717 60.718M381.659 85.741l3.273-3.275 12.139 12.145c.437.437.677 1.016.679 1.635 0 .619-.242 1.202-.679 1.64l-12.139 12.141-3.273-3.274 10.5-10.506-10.5-10.506zm-7.255 2.391l4.956 4.631h-21.769l-4.956-4.631h21.769zm-16.812 11.602h21.771l-4.96 4.629h-21.77l4.959-4.629zm16.812 11.599l4.958 4.629h-21.771l-4.958-4.629h21.771zm-27.336-17.264l3.275 3.276-10.506 10.503 10.506 10.507-3.275 3.274-12.144-12.143a2.297 2.297 0 0 1-.675-1.637 2.29 2.29 0 0 1 .675-1.637l12.144-12.143z"/><path fill="#CB3837" d="M543.999 158.562V45.438L487.438 102l56.561 56.562zM103.688 0H21.125l41.281 41.281zM305.28 405.598l-60.718-60.718 60.718-60.718 60.718 60.718zM123.125 344.875l60.718 60.719 60.719-60.719V223.438zM543.999 288.312l-56.561 56.563 56.561 56.562z"/><path fill="#FFF" d="M352.633 111.333l4.958 4.629h21.771l-4.958-4.629zM352.634 104.363h21.769l4.96-4.629h-21.771zM379.36 92.763l-4.956-4.631h-21.768l4.956 4.631zM347.068 121.629l3.275-3.274-10.506-10.507 10.506-10.503-3.275-3.276-12.144 12.143a2.29 2.29 0 0 0-.675 1.637c0 .62.239 1.201.675 1.637l12.144 12.143zM392.159 96.247l-10.5 10.506 3.273 3.274 12.139-12.141a2.309 2.309 0 0 0 .679-1.64 2.304 2.304 0 0 0-.679-1.635l-12.139-12.145-3.273 3.275 10.5 10.506z"/><g fill="#933737"><path d="M426.719 162.719L366 223.438v-60.719L426.719 102zM487.438 284.156v60.718l56.561-56.562v-60.717zM528.718 0l-41.281 41.281V102L544 45.438V0zM285.843 0l-41.281 41.281V102l60.719-60.719V0zM183.844 162.719l-60.719 60.719v-60.719L183.844 102zM305.281 284.156l-60.719 60.719v-60.719l60.719-60.718z"/></g></svg>